<?xml version="1.0" encoding="UTF-8"?>
<svg xmlns="http://www.w3.org/2000/svg" xmlns:xlink="http://www.w3.org/1999/xlink" width="42px" height="50px" viewBox="0 0 42 49" version="1.1">
<g id="surface1">
<path style=" stroke:none;fill-rule:nonzero;fill:rgb(0%,26.666667%,50.980392%);fill-opacity:1;" d="M 41.40625 15.171875 C 41.421875 14.46875 41.25 13.773438 40.910156 13.15625 C 40.554688 12.5625 40.042969 12.070312 39.429688 11.738281 C 33.996094 8.644531 28.558594 5.554688 23.121094 2.46875 C 21.65625 1.632812 20.234375 1.660156 18.78125 2.511719 C 16.617188 3.761719 5.785156 9.890625 2.558594 11.734375 C 1.230469 12.496094 0.582031 13.65625 0.582031 15.167969 L 0.582031 33.832031 C 0.570312 34.519531 0.734375 35.199219 1.0625 35.804688 C 1.414062 36.417969 1.9375 36.925781 2.5625 37.265625 C 5.792969 39.117188 16.625 45.234375 18.789062 46.492188 C 20.242188 47.339844 21.664062 47.371094 23.128906 46.535156 C 28.5625 43.441406 34 40.347656 39.441406 37.261719 C 40.070312 36.921875 40.589844 36.417969 40.941406 35.804688 C 41.269531 35.195312 41.433594 34.515625 41.421875 33.828125 L 41.421875 15.171875 Z M 41.40625 15.171875 "/>
<path style=" stroke:none;fill-rule:nonzero;fill:rgb(0%,34.901961%,61.176471%);fill-opacity:1;" d="M 41.410156 33.832031 C 41.425781 34.519531 41.257812 35.199219 40.929688 35.804688 C 40.851562 35.949219 40.761719 36.089844 40.660156 36.21875 L 20.996094 24.5 L 39.429688 11.738281 C 40.042969 12.070312 40.554688 12.5625 40.90625 13.15625 C 41.25 13.773438 41.421875 14.46875 41.40625 15.171875 C 41.410156 21.390625 41.410156 33.832031 41.410156 33.832031 Z M 41.410156 33.832031 "/>
<path style=" stroke:none;fill-rule:nonzero;fill:rgb(39.607843%,60.392157%,82.352941%);fill-opacity:1;" d="M 40.90625 13.15625 L 1.054688 35.804688 C 0.730469 35.199219 0.566406 34.519531 0.582031 33.832031 L 0.582031 15.167969 C 0.582031 13.65625 1.230469 12.496094 2.554688 11.734375 C 5.785156 9.890625 16.617188 3.761719 18.78125 2.507812 C 20.234375 1.660156 21.65625 1.628906 23.121094 2.464844 C 28.554688 5.558594 33.992188 8.652344 39.429688 11.738281 C 40.042969 12.070312 40.554688 12.5625 40.90625 13.15625 Z M 40.90625 13.15625 "/>
<path style=" stroke:none;fill-rule:nonzero;fill:rgb(100%,100%,100%);fill-opacity:1;" d="M 21.785156 32.039062 C 19.050781 32.042969 16.53125 30.578125 15.210938 28.21875 C 15.144531 28.105469 15.082031 27.984375 15.023438 27.863281 C 13.367188 24.492188 14.53125 20.433594 17.730469 18.414062 C 20.929688 16.394531 25.152344 17.050781 27.566406 19.945312 C 27.664062 20.0625 27.753906 20.1875 27.855469 20.316406 C 27.898438 20.375 27.945312 20.4375 27.984375 20.5 L 34.570312 16.761719 C 34.410156 16.507812 34.242188 16.257812 34.066406 16.019531 C 33.976562 15.890625 33.878906 15.769531 33.789062 15.648438 C 29.042969 9.574219 20.375 8.078125 13.824219 12.207031 C 7.269531 16.339844 5.003906 24.722656 8.601562 31.519531 C 8.667969 31.640625 8.730469 31.757812 8.789062 31.871094 C 11.382812 36.386719 16.1875 39.230469 21.445312 39.367188 C 26.707031 39.503906 31.65625 36.914062 34.488281 32.542969 L 28.050781 28.703125 C 26.664062 30.785156 24.308594 32.039062 21.785156 32.039062 Z M 21.785156 32.039062 "/>
</g>
</svg>
