<?xml version="1.0" encoding="UTF-8"?>
<svg xmlns="http://www.w3.org/2000/svg" xmlns:xlink="http://www.w3.org/1999/xlink" width="50px" height="50px" viewBox="0 0 50 50" version="1.1">
<g id="surface1">
<path style=" stroke:none;fill-rule:nonzero;fill:rgb(20%,0%,0%);fill-opacity:1;" d="M 3.125 18.957031 C 3.125 13.417969 3.125 10.644531 4.203125 8.527344 C 5.152344 6.667969 6.667969 5.152344 8.527344 4.203125 C 10.644531 3.125 13.417969 3.125 18.957031 3.125 L 31.042969 3.125 C 36.582031 3.125 39.355469 3.125 41.472656 4.203125 C 43.332031 5.152344 44.847656 6.667969 45.796875 8.527344 C 46.875 10.644531 46.875 13.417969 46.875 18.957031 L 46.875 31.042969 C 46.875 36.582031 46.875 39.355469 45.796875 41.472656 C 44.847656 43.332031 43.332031 44.847656 41.472656 45.796875 C 39.355469 46.875 36.582031 46.875 31.042969 46.875 L 18.957031 46.875 C 13.417969 46.875 10.644531 46.875 8.527344 45.796875 C 6.667969 44.847656 5.152344 43.332031 4.203125 41.472656 C 3.125 39.355469 3.125 36.582031 3.125 31.042969 Z M 3.125 18.957031 "/>
<path style=" stroke:none;fill-rule:nonzero;fill:rgb(100%,60.392157%,0%);fill-opacity:1;" d="M 24.324219 30.621094 L 17.546875 30.621094 L 16.167969 35.015625 C 16.128906 35.175781 15.976562 35.292969 15.816406 35.285156 L 12.382812 35.285156 C 12.183594 35.285156 12.117188 35.175781 12.175781 34.953125 L 18.046875 17.617188 C 18.105469 17.433594 18.164062 17.230469 18.222656 17 C 18.296875 16.597656 18.335938 16.1875 18.339844 15.777344 C 18.320312 15.660156 18.429688 15.550781 18.542969 15.570312 L 23.210938 15.570312 C 23.347656 15.570312 23.425781 15.617188 23.445312 15.71875 L 30.109375 34.984375 C 30.167969 35.183594 30.109375 35.285156 29.933594 35.285156 L 26.117188 35.285156 C 25.984375 35.300781 25.855469 35.207031 25.824219 35.074219 Z M 18.601562 26.828125 L 23.238281 26.828125 C 22.476562 24.222656 21.617188 21.652344 20.921875 19.03125 C 20.167969 21.660156 19.347656 24.277344 18.601562 26.828125 Z M 18.601562 26.828125 "/>
<path style=" stroke:none;fill-rule:nonzero;fill:rgb(100%,60.392157%,0%);fill-opacity:1;" d="M 34.070312 18.757812 C 33.769531 18.769531 33.472656 18.71875 33.195312 18.605469 C 32.914062 18.492188 32.664062 18.316406 32.457031 18.097656 C 32.246094 17.867188 32.085938 17.597656 31.980469 17.300781 C 31.875 17.007812 31.828125 16.695312 31.839844 16.382812 C 31.828125 16.070312 31.882812 15.761719 31.996094 15.472656 C 32.109375 15.1875 32.28125 14.925781 32.5 14.710938 C 32.714844 14.496094 32.972656 14.332031 33.25 14.21875 C 33.53125 14.109375 33.828125 14.054688 34.128906 14.0625 C 34.832031 14.0625 35.386719 14.277344 35.785156 14.710938 C 35.988281 14.933594 36.144531 15.199219 36.25 15.484375 C 36.351562 15.769531 36.398438 16.074219 36.386719 16.382812 C 36.398438 16.695312 36.351562 17.011719 36.242188 17.304688 C 36.132812 17.597656 35.96875 17.867188 35.757812 18.097656 C 35.535156 18.320312 35.269531 18.496094 34.980469 18.609375 C 34.691406 18.722656 34.378906 18.773438 34.070312 18.757812 Z M 32.042969 34.984375 L 32.042969 20.59375 C 32.042969 20.414062 32.121094 20.324219 32.277344 20.324219 L 35.890625 20.324219 C 36.046875 20.324219 36.125 20.414062 36.125 20.59375 L 36.125 34.984375 C 36.125 35.183594 36.046875 35.285156 35.890625 35.285156 L 32.308594 35.285156 C 32.132812 35.285156 32.042969 35.183594 32.042969 34.984375 Z M 32.042969 34.984375 "/>
</g>
</svg>
